<?xml version="1.0" standalone="no"?>
<!DOCTYPE svg PUBLIC "-//W3C//DTD SVG 20010904//EN"
 "http://www.w3.org/TR/2001/REC-SVG-20010904/DTD/svg10.dtd">
<svg version="1.0" xmlns="http://www.w3.org/2000/svg"
 width="260.000000pt" height="260.000000pt" viewBox="0 0 260.000000 260.000000"
 preserveAspectRatio="xMidYMid meet">
<metadata>
Created by potrace 1.14, written by Peter Selinger 2001-2017
</metadata>
<g transform="translate(0.000000,260.000000) scale(0.100000,-0.100000)"
fill="#000000" stroke="none">
<path d="M807 1723 c-8 -10 -25 -47 -37 -83 -12 -35 -45 -101 -74 -145 -91
-140 -217 -310 -228 -310 -23 0 -49 64 -83 206 -51 210 -53 217 -84 251 -68
76 -129 -30 -76 -132 8 -16 31 -85 50 -152 19 -68 53 -160 76 -206 l41 -83
-37 -44 c-20 -25 -68 -77 -108 -117 -120 -121 -139 -154 -114 -196 23 -36 69
-1 223 168 119 132 462 597 512 695 31 62 37 110 18 140 -19 29 -56 33 -79 8z"/>
<path d="M2185 1669 c-99 -15 -127 -21 -207 -45 -97 -29 -248 -100 -249 -117
0 -7 -2 -20 -4 -30 -9 -49 59 -58 128 -17 45 27 167 71 177 65 5 -3 7 -15 5
-28 -2 -12 -6 -35 -9 -52 -4 -25 -55 -223 -71 -275 -17 -55 -65 -256 -65 -271
0 -40 63 -66 89 -36 6 8 13 31 17 53 10 66 53 241 99 399 24 83 46 170 49 193
2 24 7 46 10 49 13 14 101 21 209 19 111 -2 120 -1 133 18 20 32 7 65 -30 75
-38 10 -212 11 -281 0z"/>
<path d="M1372 1639 c-109 -32 -283 -172 -378 -305 -151 -211 -142 -400 22
-482 151 -74 430 71 531 275 46 94 49 146 8 181 -36 30 -78 26 -189 -18 -42
-16 -86 -30 -97 -30 -36 0 -87 -30 -91 -54 -6 -32 7 -63 30 -70 18 -6 32 -2
97 25 128 53 175 67 175 53 0 -10 -41 -75 -73 -117 -55 -72 -211 -167 -272
-167 -64 0 -135 66 -142 133 -16 141 164 367 369 462 67 31 83 31 124 0 39
-30 60 -32 74 -6 24 46 3 89 -57 120 -26 13 -85 13 -131 0z"/>
</g>
</svg>
